<svg width="24" height="24" viewBox="0 0 24 24" fill="none" xmlns="http://www.w3.org/2000/svg">
<path d="M10.5 5.22677C10.5 5.37855 10.5047 5.88703 10.5141 6.03033L10.5937 8.92764C10.5947 8.9427 10.5913 8.95772 10.5838 8.97104C10.5764 8.98435 10.5652 8.99545 10.5516 9.00308L3.16687 14.7879C3.11811 14.823 3.07792 14.8677 3.04911 14.9191C3.0203 14.9704 3.00354 15.0271 3 15.0852V16.2856L10.5469 13.0267C10.5641 13.0189 10.5833 13.0156 10.6023 13.017C10.6214 13.0184 10.6397 13.0244 10.6555 13.0346C10.6714 13.0448 10.6842 13.0587 10.6926 13.075C10.7011 13.0913 10.705 13.1094 10.7039 13.1276L10.7883 18.5602C10.7901 18.6167 10.7779 18.6728 10.7526 18.724C10.7274 18.7752 10.6898 18.82 10.643 18.8548L8.53359 20.5066C8.35078 20.6405 8.25234 20.8914 8.25234 21.1097V21.9517C8.25234 22.0093 8.30906 22.0008 8.36625 21.9852L11.7141 21.0994C11.8934 21.0325 12.0926 21.0325 12.2719 21.0994L15.6094 21.986C15.7008 22.0124 15.75 22.0093 15.75 21.907V21.107C15.75 20.7436 15.7003 20.6941 15.4547 20.5084L13.3125 18.8254C13.266 18.7903 13.2287 18.7454 13.2035 18.6943C13.1783 18.6432 13.1659 18.5872 13.1672 18.5307L13.2937 13.1432C13.2942 13.1236 13.2997 13.1044 13.3097 13.0873C13.3198 13.0701 13.334 13.0556 13.3513 13.0449C13.3686 13.0342 13.3884 13.0277 13.4089 13.0259C13.4294 13.0242 13.4501 13.0272 13.4691 13.0348L21 16.2856V15.0964C20.9964 15.0384 20.9797 14.9818 20.951 14.9305C20.9223 14.8793 20.8822 14.8346 20.8336 14.7995L13.4531 9.00264C13.425 8.98523 13.4109 8.91335 13.4109 8.88255L13.4906 6.02989C13.5 5.88257 13.5047 5.37855 13.5047 5.22632C13.5047 3.24999 12.9342 2 12 2C11.0658 2 10.5 3.24464 10.5 5.22677Z" fill="black"/>
</svg>
