<svg width="24" height="24" viewBox="0 0 24 24" fill="none" xmlns="http://www.w3.org/2000/svg">
<path fill-rule="evenodd" clip-rule="evenodd" d="M20.0156 13.8957L10.0198 3.89995C9.79447 3.67462 9.42914 3.67462 9.20382 3.89995C9.09504 4.00873 8.9575 4.265 8.93256 4.73516C8.89482 5.44651 8.73274 6.81897 7.77585 7.77585C6.81897 8.73274 5.44651 8.89482 4.73516 8.93256C4.265 8.9575 4.00873 9.09504 3.89995 9.20382C3.67462 9.42915 3.67462 9.79447 3.89995 10.0198L13.8957 20.0156C14.2337 20.3535 14.7817 20.3535 15.1197 20.0156L20.0156 15.1197C20.3535 14.7817 20.3535 14.2337 20.0156 13.8957ZM11.2438 2.67598L21.2395 12.6717C22.2535 13.6857 22.2535 15.3297 21.2395 16.3436L16.3436 21.2395C15.3297 22.2535 13.6857 22.2535 12.6717 21.2395L2.67598 11.2438C1.77467 10.3425 1.77467 8.88116 2.67598 7.97985C3.18965 7.46618 3.91805 7.24251 4.64347 7.20403C5.3009 7.16916 6.08482 7.01895 6.55188 6.55188C7.01895 6.08482 7.16916 5.3009 7.20403 4.64347C7.24251 3.91805 7.46618 3.18965 7.97985 2.67598C8.88116 1.77467 10.3425 1.77467 11.2438 2.67598Z" fill="black"/>
<path d="M18.7916 12.6717L17.5676 11.4478L11.4478 17.5676L12.6717 18.7916L18.7916 12.6717Z" fill="black"/>
</svg>
